<?xml version="1.0" standalone="no"?>
<!DOCTYPE svg PUBLIC "-//W3C//DTD SVG 20010904//EN"
 "http://www.w3.org/TR/2001/REC-SVG-20010904/DTD/svg10.dtd">
<svg version="1.0" xmlns="http://www.w3.org/2000/svg"
 width="16.000000pt" height="16.000000pt" viewBox="0 0 16.000000 16.000000"
 preserveAspectRatio="xMidYMid meet">
<metadata>
Created by potrace 1.11, written by Peter Selinger 2001-2013
</metadata>
<g transform="translate(0.000000,16.000000) scale(0.011111,-0.011111)"
fill="#000000" stroke="none">
<path d="M649 1376 c-2 -2 -24 -6 -49 -9 -109 -13 -256 -92 -351 -189 -130
-132 -191 -295 -184 -488 4 -111 5 -119 23 -163 7 -16 12 -32 12 -37 0 -12 50
-110 74 -145 12 -16 39 -49 61 -73 22 -25 39 -49 37 -54 -1 -5 2 -7 6 -4 12 7
54 -29 45 -38 -4 -4 0 -4 10 0 11 4 19 0 23 -10 3 -9 12 -16 19 -16 8 0 29 -9
47 -20 38 -22 111 -49 148 -56 14 -2 41 -7 60 -11 30 -5 79 -5 203 1 15 0 27
4 27 8 0 3 11 5 24 4 14 -2 27 3 30 10 3 7 14 11 26 9 11 -2 20 -1 20 3 0 11
62 32 73 25 6 -3 7 -1 3 5 -4 8 4 16 21 23 15 5 31 16 35 22 4 7 11 12 15 12
12 0 113 90 113 100 0 11 34 44 42 39 4 -3 5 2 2 10 -4 9 1 18 10 22 9 3 14
10 11 14 -3 4 2 13 10 20 8 7 15 18 15 24 0 18 24 66 33 66 5 0 6 4 3 9 -4 5
-1 22 5 38 20 51 24 87 23 203 0 80 -6 132 -18 170 -19 58 -80 185 -100 205
-6 7 -24 29 -40 49 -62 79 -198 165 -316 200 -49 15 -240 32 -251 22z"/>
</g>
</svg>
